<svg xmlns="http://www.w3.org/2000/svg" viewBox="0 0 256 256" role="img" aria-label="Avaliance Copilot logo">
  <defs>
    <linearGradient id="purple" x1="0" y1="0" x2="1" y2="1">
      <stop offset="0%" stop-color="#b35cff"/>
      <stop offset="55%" stop-color="#7d28d9"/>
      <stop offset="100%" stop-color="#5320a8"/>
    </linearGradient>
    <linearGradient id="lime" x1="0" y1="0" x2="1" y2="1">
      <stop offset="0%" stop-color="#f5fb4a"/>
      <stop offset="60%" stop-color="#d6ea00"/>
      <stop offset="100%" stop-color="#9fb000"/>
    </linearGradient>
    <linearGradient id="silver" x1="0" y1="0" x2="1" y2="1">
      <stop offset="0%" stop-color="#edf0f6"/>
      <stop offset="55%" stop-color="#bcc2d1"/>
      <stop offset="100%" stop-color="#8f97aa"/>
    </linearGradient>
    <linearGradient id="shadow" x1="0" y1="0" x2="1" y2="1">
      <stop offset="0%" stop-color="#0f0f12" stop-opacity="0.22"/>
      <stop offset="100%" stop-color="#0f0f12" stop-opacity="0"/>
    </linearGradient>
  </defs>
  <rect width="256" height="256" fill="none"/>

  <g transform="translate(26 24)">
    <path d="M58 30 C74 18, 93 14, 113 18 L176 31 C191 34, 200 46, 200 61 L200 72 C200 86, 192 99, 180 106 L146 124 L175 141 C189 149, 198 163, 198 179 L198 191 C198 207, 188 220, 173 223 L111 236 C92 240, 74 236, 58 226 L29 208 C15 199, 8 185, 8 169 L8 77 C8 63, 15 50, 28 42 Z" fill="url(#shadow)" transform="translate(6 10)"/>

    <path d="M58 30 C74 18, 93 14, 113 18 L176 31 C191 34, 200 46, 200 61 L200 72 C200 86, 192 99, 180 106 L146 124 L175 141 C189 149, 198 163, 198 179 L198 191 C198 207, 188 220, 173 223 L111 236 C92 240, 74 236, 58 226 L29 208 C15 199, 8 185, 8 169 L8 77 C8 63, 15 50, 28 42 Z" fill="url(#purple)"/>

    <path d="M64 144 L116 118 L116 230 L64 204 Z" fill="url(#silver)"/>
    <path d="M115 116 L158 90 L158 202 L115 228 Z" fill="url(#purple)"/>
    <path d="M144 166 L190 198 L190 220 L144 188 Z" fill="url(#lime)"/>
    <path d="M116 118 L144 106 L144 214 L116 230 Z" fill="url(#shadow)" opacity="0.22"/>

    <path d="M30 146 L88 117" stroke="url(#purple)" stroke-width="8" stroke-linecap="round"/>
    <path d="M30 159 L88 159" stroke="url(#silver)" stroke-width="8" stroke-linecap="round"/>
    <path d="M30 172 L88 194" stroke="url(#lime)" stroke-width="8" stroke-linecap="round"/>
    <circle cx="24" cy="146" r="8" fill="#b35cff"/>
    <circle cx="24" cy="159" r="8" fill="#bcc2d1"/>
    <circle cx="24" cy="172" r="8" fill="#d6ea00"/>

    <g transform="translate(86 92)">
      <circle cx="42" cy="42" r="35" fill="#ffffff"/>
      <circle cx="42" cy="42" r="35" fill="none" stroke="#e7e6ef" stroke-width="2"/>
      <path d="M66 43 C66 58, 54 70, 39 70 C24 70, 13 59, 13 44 C13 29, 25 17, 40 17 C52 17, 61 24, 65 35" fill="none" stroke="#7a2dd7" stroke-width="4.4" stroke-linecap="round"/>
      <path d="M39 31 L39 53" stroke="#7a2dd7" stroke-width="4.4" stroke-linecap="round"/>
      <path d="M39 31 L26 24" stroke="#7a2dd7" stroke-width="4.4" stroke-linecap="round"/>
      <path d="M39 53 L54 46" stroke="#7a2dd7" stroke-width="4.4" stroke-linecap="round"/>
      <circle cx="39" cy="31" r="4.6" fill="#7a2dd7"/>
      <circle cx="26" cy="24" r="4.6" fill="#7a2dd7"/>
      <circle cx="54" cy="46" r="4.6" fill="#7a2dd7"/>
    </g>

    <circle cx="101" cy="136" r="13" fill="#ffffff" stroke="#7a2dd7" stroke-width="5"/>
    <circle cx="204" cy="128" r="4.5" fill="#c99dff"/>
    <circle cx="212" cy="128" r="2.8" fill="#c99dff" opacity="0.8"/>
    <circle cx="221" cy="128" r="1.8" fill="#c99dff" opacity="0.55"/>
    <path d="M208 128 h11" stroke="#c99dff" stroke-width="3.2" stroke-linecap="round"/>
    <path d="M210 121 l10 -4" stroke="#c99dff" stroke-width="3.2" stroke-linecap="round"/>
    <path d="M210 135 l10 4" stroke="#c99dff" stroke-width="3.2" stroke-linecap="round"/>

    <path d="M199 102 L211 90 L223 102 L211 114 Z" fill="#d6ea00" opacity="0.92"/>
    <path d="M221 76 L226 86 L236 91 L226 96 L221 106 L216 96 L206 91 L216 86 Z" fill="#b35cff"/>
    <path d="M204 160 L208 168 L216 172 L208 176 L204 184 L200 176 L192 172 L200 168 Z" fill="#b35cff" opacity="0.82"/>
  </g>
</svg>